HIERARCHY
ROOT Hips
{
	OFFSET 0.000000 0.000000 0.000000 
	CHANNELS 6 Xposition Yposition Zposition Zrotation Yrotation Xrotation
	JOINT LeftUpLeg
	{
		OFFSET 1.363060 -1.794630 0.839290 
		CHANNELS 3 Zrotation Yrotation Xrotation
		JOINT LeftLeg
		{
			OFFSET 2.448110 -6.726130 0.000000 
			CHANNELS 3 Zrotation Yrotation Xrotation
			JOINT LeftFoot
			{
				OFFSET 2.562200 -7.039590 0.000000 
				CHANNELS 3 Zrotation Yrotation Xrotation
				JOINT LeftToeBase
				{
					OFFSET 0.157640 -0.433110 2.322550 
					CHANNELS 3 Zrotation Yrotation Xrotation
					End Site
					{
						OFFSET 0.000000 0.000000 0.000000 
					}
				}
			}
		}
	}
	JOINT RightUpLeg
	{
		OFFSET -1.305520 -1.794630 0.839290 
		CHANNELS 3 Zrotation Yrotation Xrotation
		JOINT RightLeg
		{
			OFFSET -2.542530 -6.985550 0.000000 
			CHANNELS 3 Zrotation Yrotation Xrotation
			JOINT RightFoot
			{
				OFFSET -2.568260 -7.056230 0.000000 
				CHANNELS 3 Zrotation Yrotation Xrotation
				JOINT RightToeBase
				{
					OFFSET -0.164730 -0.452590 2.363150 
					CHANNELS 3 Zrotation Yrotation Xrotation
					End Site
					{
						OFFSET 0.000000 0.000000 0.000000 
					}
				}
			}
		}
	}
	JOINT Spine
	{
		OFFSET 0.028270 2.035590 -0.193380 
		CHANNELS 3 Zrotation Yrotation Xrotation
		JOINT Spine1
		{
			OFFSET 0.056720 2.048850 -0.042750 
			CHANNELS 3 Zrotation Yrotation Xrotation
			JOINT Neck1
			{
				OFFSET -0.054170 1.746240 0.172020 
				CHANNELS 3 Zrotation Yrotation Xrotation
				JOINT Head
				{
					OFFSET 0.104070 1.761360 -0.123970 
					CHANNELS 3 Zrotation Yrotation Xrotation
					End Site
					{
						OFFSET 0.000000 0.000000 0.000000 
					}
				}
			}
			JOINT LeftArm
			{
				OFFSET 3.362410 1.200890 -0.311210 
				CHANNELS 3 Zrotation Yrotation Xrotation
				JOINT LeftForeArm
				{
					OFFSET 4.983000 -0.000000 -0.000000 
					CHANNELS 3 Zrotation Yrotation Xrotation
					JOINT LeftHand
					{
						OFFSET 3.483560 -0.000000 -0.000000 
						CHANNELS 3 Zrotation Yrotation Xrotation
						JOINT LeftHandIndex1
						{
							OFFSET 0.715260 -0.000000 -0.000000 
							CHANNELS 3 Zrotation Yrotation Xrotation
							End Site
							{
								OFFSET 0.000000 0.000000 0.000000 
							}
						}
					}
				}
			}
			JOINT RightArm
			{
				OFFSET -3.136600 1.374050 -0.404650 
				CHANNELS 3 Zrotation Yrotation Xrotation
				JOINT RightForeArm
				{
					OFFSET -5.241900 -0.000000 -0.000000 
					CHANNELS 3 Zrotation Yrotation Xrotation
					JOINT RightHand
					{
						OFFSET -3.444170 -0.000000 -0.000000 
						CHANNELS 3 Zrotation Yrotation Xrotation
						JOINT RightHandIndex1
						{
							OFFSET -0.622530 -0.000000 -0.000000 
							CHANNELS 3 Zrotation Yrotation Xrotation
							End Site
							{
								OFFSET 0.000000 0.000000 0.000000 
							}
						}
					}
				}
			}
		}
	}
}
MOTION
Frames: 18
Frame Time: 0.041667
-9.043563 17.764483 -33.217817 0.940746 -6.241105 -0.559295 -23.706180 -8.345381 -17.398134 0.552441 7.346120 22.485247 0.498739 -0.464364 9.735357 0.040300 1.295200 3.561300 25.203959 5.673499 -5.806727 -10.788318 -16.489176 60.187961 -1.387436 -8.755268 28.577449 -1.049200 -6.513700 18.282400 0.386052 0.439338 -2.154377 0.318088 0.676990 -6.507706 4.415808 0.709882 14.550705 3.846500 -0.288800 7.473700 -83.957843 11.497356 10.185406 10.099216 -19.214648 -1.922114 -1.252245 -2.854481 10.541054 -7.125000 0.000000 0.000000 82.657027 -5.856830 14.632266 -15.308290 23.170781 -4.133863 0.866241 -0.608772 5.789416 7.125000 0.000000 0.000000 
-9.029972 17.782233 -33.027740 1.346628 -6.374185 -0.918279 -24.104155 -8.225145 -16.350030 0.551740 7.293261 22.388602 0.429675 -0.207113 9.320068 0.037100 1.242800 3.417200 24.859073 5.866763 -6.700871 -11.302193 -16.769298 61.948378 -1.021151 -9.048459 26.527968 -0.932800 -6.152400 17.227400 2.582701 -1.957636 -2.488185 8.806085 -0.037864 -7.081480 2.744260 3.440316 14.560437 3.852000 0.577200 6.736200 -91.670147 13.432990 3.424500 10.388583 -19.598408 -2.044747 -1.458606 -2.720169 12.184342 -7.125000 0.000000 0.000000 75.009342 -6.759689 22.182680 -14.917996 22.878318 -3.980915 0.960062 -0.537796 4.062392 7.125000 0.000000 0.000000 
-9.030378 17.793998 -32.866874 1.324214 -6.017878 -1.016115 -24.488344 -8.214263 -15.646484 0.594466 7.314967 22.574012 0.421477 -0.340607 8.626475 0.019800 0.909300 2.499200 24.592462 5.852135 -8.046777 -11.808990 -17.086305 63.674448 -0.649649 -9.547883 24.454474 -1.012200 -6.401400 17.953500 1.526389 -4.723675 -2.200217 3.311426 -1.815958 -4.563173 4.777200 5.741772 11.652205 4.961500 1.929500 3.532200 -89.017242 15.174855 -0.107130 10.683502 -20.446689 -2.215057 -1.252914 -2.857500 10.911172 -7.125000 0.000000 0.000000 77.903752 -7.540696 26.221331 -14.133696 22.065046 -3.691676 0.917609 -0.647609 5.397405 7.125000 0.000000 0.000000 
-9.037985 17.792274 -32.732279 1.341095 -5.708919 -1.115309 -24.610981 -7.982477 -15.145993 0.603203 7.303280 22.606960 0.467987 -0.706910 8.023032 0.011400 0.689700 1.895500 24.592376 5.901753 -9.515802 -12.301079 -17.360824 65.305003 -0.317845 -10.097671 22.626117 -0.997000 -6.354400 17.816300 1.801352 -4.668175 -2.254018 4.636821 -1.718469 -4.998280 4.418453 5.606187 11.971622 4.816500 1.828700 3.894100 -89.505525 14.573773 0.165924 10.729277 -20.461401 -2.228720 -1.185451 -2.913962 11.564461 -7.125000 0.000000 0.000000 77.203484 -7.313215 25.318443 -13.835376 21.590178 -3.521914 0.921030 -0.716173 5.876485 7.125000 0.000000 0.000000 
-9.044578 17.790753 -32.587135 1.308597 -5.771247 -1.296097 -24.622190 -7.553690 -14.562497 0.615161 7.292396 22.640182 0.491418 -0.919852 7.512028 0.025500 1.030000 2.831400 24.685467 6.292670 -10.725339 -12.735987 -17.589331 66.719609 0.057943 -10.817088 20.612374 -0.871000 -5.950300 16.640400 2.251942 -4.039118 -2.314299 6.844337 -1.277215 -5.730487 3.642872 4.978714 12.793731 4.481300 1.433900 4.794700 -90.406784 13.532123 0.971457 10.671524 -20.246257 -2.195278 -1.260728 -2.847090 12.642639 -7.125000 0.000000 0.000000 76.039924 -6.974753 23.772895 -13.594540 21.155493 -3.373925 0.899217 -0.773381 6.786118 7.125000 0.000000 0.000000 
-9.037173 17.803127 -32.409229 1.673026 -6.008864 -1.594702 -25.171086 -7.292580 -13.588364 0.638223 7.271612 22.664929 0.414487 -0.649850 6.642905 0.024500 1.011300 2.780000 24.148056 6.715434 -11.667322 -13.074260 -17.770922 67.830846 0.357051 -11.297678 18.837446 -0.718900 -5.418100 15.105000 2.584601 -3.299753 -2.330042 8.794820 -0.790900 -6.332832 2.842489 4.438805 13.898982 4.081400 1.061300 5.891300 -91.207685 12.460041 1.778620 10.643757 -20.087168 -2.179152 -1.299176 -2.793178 13.312849 -7.125000 0.000000 0.000000 74.979862 -6.732648 22.426269 -13.468080 20.885698 -3.280689 0.894521 -0.833139 7.468773 7.125000 0.000000 0.000000 
-9.022770 17.807488 -32.215095 2.022282 -6.330033 -1.763170 -25.783129 -7.196850 -12.668403 0.668513 7.266944 22.728379 0.302349 -0.192039 5.648186 0.028300 1.086500 2.986700 23.497425 7.176611 -12.687023 -13.331900 -17.927238 68.705085 0.566344 -11.496442 17.351365 -0.599900 -4.958300 13.789600 2.690077 -3.008278 -2.305242 9.474159 -0.621223 -6.413798 2.448138 4.519250 14.679544 3.894100 1.023900 6.595200 -91.530476 11.746938 1.952791 10.737493 -20.187098 -2.217414 -1.267573 -2.812400 13.270329 -7.125000 0.000000 0.000000 74.538800 -6.537929 21.924187 -13.314573 20.616378 -3.191352 0.899920 -0.852767 8.071295 7.125000 0.000000 0.000000 
-9.013743 17.807590 -32.038204 2.256127 -6.295755 -1.790433 -26.334932 -7.024200 -12.003507 0.698640 7.271173 22.828141 0.278666 -0.156966 4.833006 0.025100 1.022200 2.809900 22.914203 7.485577 -13.964619 -13.552356 -18.083444 69.466261 0.771183 -11.695473 15.815213 -0.493400 -4.503600 12.498100 2.389716 -4.164640 -2.168299 7.754235 -1.354287 -5.056428 2.929257 5.425888 13.467973 4.236600 1.560400 5.215000 -90.853209 12.401659 0.560576 10.973560 -20.731732 -2.349692 -1.232464 -2.826252 12.727126 -7.125000 0.000000 0.000000 75.207645 -6.973191 23.637603 -13.056517 20.408845 -3.119830 0.893464 -0.817705 8.638696 7.125000 0.000000 0.000000 
-9.009280 17.808604 -31.886670 2.157928 -6.583475 -1.553805 -26.278390 -6.781047 -11.970753 0.757638 7.388333 23.174079 0.263567 -0.102838 4.099580 0.027400 1.068400 2.937100 22.894131 8.248366 -15.482964 -13.749232 -18.223014 70.138037 0.925898 -11.895741 14.664810 -0.437700 -4.245100 11.767200 2.819483 -3.480075 -2.281094 9.775305 -0.882593 -5.785628 2.151872 4.985756 14.493422 3.837600 1.230100 6.235800 -91.769654 11.825087 1.781193 11.158459 -20.956442 -2.439757 -1.322650 -2.749743 13.122124 -7.125000 0.000000 0.000000 74.103962 -6.973133 22.599853 -13.207265 20.557301 -3.169795 0.877320 -0.769525 8.235111 7.125000 0.000000 0.000000 
-9.024495 17.798055 -31.755827 2.253865 -8.524134 -1.102935 -26.374052 -5.619423 -12.633078 0.857198 7.590523 23.735032 0.154328 0.444870 3.164270 0.035400 1.215300 3.341500 22.712808 10.826785 -17.123700 -13.956777 -18.407789 70.851661 1.053387 -12.094948 13.703188 -0.456600 -4.334900 12.020800 2.595238 -1.929887 -2.227342 9.323673 -0.125939 -5.939494 2.140181 4.325822 14.673642 3.677200 0.952600 6.566500 -90.677540 11.289825 4.061875 11.339266 -21.269557 -2.529328 -1.382871 -2.729560 13.080134 -7.125000 0.000000 0.000000 75.010451 -7.198963 20.606771 -13.295432 20.611503 -3.187882 0.891441 -0.716888 8.366409 7.125000 0.000000 0.000000 
-9.078252 17.777263 -31.635330 2.622569 -12.431104 -0.372811 -26.601682 -2.944722 -14.057373 0.941314 7.761213 24.174135 0.019647 1.135687 2.164611 0.050800 1.455000 4.001600 22.406428 15.452872 -18.908586 -14.093218 -18.602115 71.364860 1.084355 -12.022137 13.217393 -0.404800 -4.084700 11.315000 2.528111 -0.110675 -2.164140 9.909413 0.802499 -5.736414 2.173699 4.294943 14.718933 3.635700 0.954200 6.660300 -90.252737 10.697757 4.663407 11.296857 -21.227352 -2.525613 -1.494658 -2.597064 12.862859 -7.125000 0.000000 0.000000 75.369468 -7.224341 19.743857 -13.301953 20.549072 -3.167972 0.925600 -0.640064 8.636020 7.125000 0.000000 0.000000 
-9.108782 17.744197 -31.502357 2.916019 -13.845021 -0.234070 -26.976735 -1.604263 -14.353089 1.015201 7.877773 24.542750 -0.012641 1.306427 1.240646 0.032600 1.166000 3.205800 22.020650 17.374167 -20.284916 -14.109118 -18.702492 71.538480 1.071481 -11.438914 12.318646 -0.351200 -3.807800 10.536500 2.494591 0.508027 -2.113056 10.282084 1.115845 -5.624638 2.326654 4.271415 14.799208 3.702500 0.943200 6.709500 -89.941192 10.194185 4.964378 11.311322 -21.259060 -2.534336 -1.456577 -2.637140 12.685837 -7.125000 0.000000 0.000000 75.546942 -7.271966 19.421881 -13.315719 20.520915 -3.156326 0.973941 -0.538060 8.582740 7.125000 0.000000 0.000000 
-9.109492 17.763367 -31.350823 3.050420 -13.098261 -0.538480 -27.280232 -1.724809 -13.352139 1.029821 7.847668 24.563658 0.057310 0.963441 0.735476 0.019800 0.908900 2.498300 21.744942 16.928615 -20.949059 -13.878967 -18.665753 70.957936 1.086038 -10.735675 10.844075 -0.358700 -3.847700 10.648500 2.526800 -0.046293 -2.093220 10.398719 0.827986 -5.597000 2.336189 4.373884 15.084683 3.772600 0.947300 6.827200 -89.863351 9.995141 4.980462 11.485667 -21.547873 -2.627324 -1.275746 -2.765191 12.088972 -7.125000 0.000000 0.000000 75.459034 -7.357295 19.780946 -13.343060 20.554221 -3.166070 1.001991 -0.430647 8.167213 7.125000 0.000000 0.000000 
-9.091843 17.757383 -31.196855 3.082090 -11.252569 -0.752136 -27.553412 -2.790750 -12.153460 1.033594 7.812942 24.552934 0.103612 0.721924 0.456728 0.006900 0.535800 1.472300 21.371938 15.362972 -21.907153 -13.589177 -18.606713 70.202123 1.071002 -9.878051 9.164256 -0.392900 -4.025000 11.147000 2.493306 -0.756841 -2.149208 10.061436 0.468189 -5.825601 2.165032 4.174582 15.397634 3.682100 0.824200 7.021500 -89.502337 9.816350 5.856191 11.656210 -21.821133 -2.712822 -1.251499 -2.789136 11.239535 -7.125000 0.000000 0.000000 75.661796 -7.755688 19.441688 -13.508897 20.814444 -3.253233 0.977600 -0.354481 7.564660 7.125000 0.000000 0.000000 
-9.036970 17.766917 -31.006981 2.969736 -4.882749 -1.267535 -27.951224 -6.452212 -9.483110 0.990774 7.673634 24.325440 0.431283 -0.995576 1.148071 0.008700 0.602000 1.654300 20.866167 9.340706 -22.544886 -13.186332 -18.436442 69.060982 1.072230 -9.020174 6.840683 -0.424100 -4.179600 11.582500 2.434809 -3.208681 -2.237911 9.046722 -0.806313 -5.897351 1.932291 3.899789 15.341175 3.503100 0.721500 7.101900 -89.052597 9.484203 7.464270 11.911271 -22.205931 -2.820351 -1.350425 -2.784296 10.782212 -7.125000 0.000000 0.000000 75.950403 -8.118415 18.668809 -13.724869 21.180818 -3.372374 0.948402 -0.237988 6.793470 7.125000 0.000000 0.000000 
-9.046403 17.746023 -30.866198 2.969520 -4.692000 -1.307454 -28.028655 -6.293620 -9.003944 1.017433 7.693742 24.443593 0.508594 -1.365643 0.758503 0.017700 0.860200 2.364200 20.725230 9.563064 -23.314448 -12.843777 -18.360617 68.115549 1.016895 -8.238866 5.240580 -0.294300 -3.488400 9.641600 2.480117 -3.299308 -2.219668 9.262927 -0.849244 -5.870320 1.831526 3.955285 15.111997 3.426800 0.772500 6.969100 -88.888701 9.359765 8.242349 12.220039 -22.712082 -2.965209 -1.356438 -2.855156 10.975437 -7.125000 0.000000 0.000000 75.870600 -8.307395 18.624154 -13.821988 21.348641 -3.431612 0.914842 -0.221538 5.803241 7.125000 0.000000 0.000000 
-9.054518 17.726143 -30.722170 3.059230 -4.568859 -1.239021 -28.281471 -6.066625 -8.680853 1.058924 7.736615 24.633094 0.560808 -1.579192 0.100177 0.011700 0.697500 1.916800 20.358092 9.917609 -24.314985 -12.460474 -18.284290 67.006393 0.980251 -7.784468 4.153979 -0.108600 -2.124900 5.851000 1.986163 -5.091053 -2.067055 6.517855 -1.941964 -4.274457 3.021296 5.402878 13.436452 4.174400 1.612600 5.053500 -87.474423 10.546695 5.925265 12.493891 -23.378372 -3.155293 -1.290682 -2.839970 9.787938 -7.125000 0.000000 0.000000 77.056254 -8.709592 21.115661 -13.315151 20.826962 -3.249979 0.926748 -0.416997 6.734524 7.125000 0.000000 0.000000 
-9.064458 17.703017 -30.583923 3.335798 -4.463617 -1.176105 -28.547893 -5.988191 -8.584512 1.151358 7.902390 25.140691 0.593613 -1.672486 -0.581411 0.013100 0.740300 2.034500 20.002473 10.287033 -25.296819 -12.094118 -18.179863 65.917717 0.975610 -7.543516 3.051593 -0.060500 -1.587300 4.366400 2.608387 -4.262658 -2.289376 9.868433 -1.314030 -5.710464 1.969337 4.823424 14.956885 3.630100 1.161200 6.752600 -89.033198 9.230238 7.265878 12.479109 -23.163673 -3.139397 -1.266684 -2.806880 10.304797 -7.125000 0.000000 0.000000 75.253489 -8.259614 18.820328 -13.153291 20.466727 -3.126426 0.880977 -0.714713 6.770669 7.125000 0.000000 0.000000 
